<svg version="1.1" id="visual" xmlns="http://www.w3.org/2000/svg" x="0" y="0" viewBox="0 0 900 600" style="enable-background:new 0 0 900 600" xml:space="preserve"><style>.st6{fill:#f97600}.st7{fill:#fc8730}.st8{fill:#fec165}.st9{fill:#feb441}</style><path d="M0 1h900.5v600H0V1z" style="fill:#a1e9f3"/><path d="m0 414 21.5-8.3c21.5-8.4 64.6-25 107.4-27.2 42.9-2.2 85.6 10.2 128.5 4.2 42.8-6 85.9-30.4 128.7-44C429.2 325 471.8 322 514.8 323c42.8 1 85.9 6 128.7 13.7 42.9 7.6 85.6 18 128.5 29.1C814.9 377 858 389 879.5 395l21.5 6v200H0V414z" style="fill:#f7bb73"/><path d="m0 384 21.5 9.5C43 403 86.1 422 128.9 430.8c42.9 8.9 85.6 7.5 128.5-5.8 42.8-13.3 85.9-38.7 128.7-50.8 42.9-12.2 85.6-11.2 128.5-5.7 42.8 5.5 85.9 15.5 128.7 19.5 42.9 4 85.6 2 128.5-1.7 42.8-3.6 85.9-9 107.4-11.6L901 372v229H0V384z" style="fill:#f6c690"/><path d="M149.2 476.5c-6.4-2.7-11.6-6.2-15.5-10.5l6.9-22c3.7 4 8.2 7.1 13.3 9.5s10.3 3.6 15.5 3.6c5.7 0 10-1.2 12.7-3.7s4.1-5.7 4.1-9.8c0-3-.8-5.5-2.4-7.5-1.6-2-3.7-3.6-6.2-4.8-2.5-1.2-6-2.5-10.3-4-6.6-2.3-12.1-4.6-16.3-6.8-4.2-2.3-7.9-5.9-10.9-11-3-5-4.5-11.8-4.5-20.2 0-7.3 1.4-14 4.1-19.9 2.7-5.9 6.9-10.6 12.4-14.1s12.3-5.2 20.2-5.2c5.6 0 11 1 16.3 2.9s10 4.7 14 8.3l-6.2 22.1c-8.1-6.6-16.1-9.9-24.2-9.9-5.7 0-9.8 1.3-12.5 4-2.7 2.6-4 6.1-4 10.4s1.6 7.5 4.7 9.6c3.1 2.1 7.9 4.2 14.3 6.2 6.6 2.3 12.1 4.6 16.3 6.8 4.2 2.3 7.9 5.9 10.9 10.8s4.5 11.6 4.5 20c0 7.2-1.4 13.8-4.2 19.7-2.8 5.9-7 10.7-12.5 14.1-5.6 3.5-12.3 5.2-20.3 5.2-7.1.3-13.7-1.1-20.2-3.8zM287.6 455v23.4h-67.5v-126H286v23.4h-45.9v27.4h40.5v22.7h-40.5V455h47.5zm71.6 23.4-16.8-35.1h-18.6v35.1h-20.2v-126h37.8c7.7 0 14.4 1.9 20.1 5.6s10.1 9 13.1 15.8c3.1 6.8 4.6 14.9 4.6 24.3s-1.6 17.4-4.7 24.2c-3.1 6.8-7.5 12-13.3 15.6l19.6 40.5h-21.6zm-5.1-96.5c-3.2-3.8-7.8-5.7-13.8-5.7h-16.4v43.9h16.4c6.1 0 10.7-1.9 13.8-5.8 3.2-3.8 4.7-9.2 4.7-16.2.1-7-1.5-12.5-4.7-16.2zm125-29.5-37.8 126h-19.9l-37.6-126h21.8l26.5 90 26.9-90h20.1zm7.2 0h20.2v126h-20.2v-126zm58.5 119.8c-7.2-5.6-12.8-13.3-16.9-23.2-4.1-9.9-6.2-21.1-6.2-33.6s2.1-23.7 6.2-33.6c4.1-9.9 9.8-17.6 16.9-23.2 7.2-5.6 15.3-8.4 24.2-8.4 7.6 0 14.4 1.9 20.5 5.8 6.1 3.8 11.2 9.4 15.4 16.6l-13 17.3c-5.9-9.8-13.2-14.8-21.9-14.8-5.4 0-10.2 1.7-14.5 5.1-4.2 3.4-7.5 8.2-9.9 14.3-2.4 6.1-3.6 13.1-3.6 20.9s1.2 14.8 3.6 20.9c2.4 6.1 5.7 10.9 9.9 14.3s9.1 5.1 14.5 5.1c8.7 0 16-5 21.9-14.9l13 17.3c-4.2 7.3-9.3 12.9-15.5 16.7-6.1 3.8-13 5.8-20.6 5.8-8.7 0-16.8-2.8-24-8.4zM686.1 455v23.4h-67.5v-126h65.9v23.4h-45.9v27.4h40.5v22.7h-40.5V455h47.5zm24.7 21.5c-6.4-2.7-11.6-6.2-15.5-10.5l6.9-22c3.7 4 8.2 7.1 13.3 9.5 5.2 2.4 10.3 3.6 15.5 3.6 5.7 0 10-1.2 12.7-3.7s4.1-5.7 4.1-9.8c0-3-.8-5.5-2.4-7.5-1.6-2-3.7-3.6-6.2-4.8-2.5-1.2-6-2.5-10.3-4-6.6-2.3-12.1-4.6-16.3-6.8-4.2-2.3-7.9-5.9-10.9-11-3-5-4.5-11.8-4.5-20.2 0-7.3 1.4-14 4.1-19.9 2.7-5.9 6.9-10.6 12.4-14.1s12.3-5.2 20.2-5.2c5.6 0 11 1 16.3 2.9s10 4.7 14 8.3l-6.2 22.1c-8.1-6.6-16.1-9.9-24.2-9.9-5.7 0-9.8 1.3-12.5 4-2.7 2.6-4 6.1-4 10.4s1.6 7.5 4.7 9.6c3.1 2.1 7.9 4.2 14.3 6.2 6.6 2.3 12.1 4.6 16.3 6.8 4.2 2.3 7.9 5.9 10.9 10.8s4.5 11.6 4.5 20c0 7.2-1.4 13.8-4.2 19.7-2.8 5.9-7 10.7-12.5 14.1-5.6 3.5-12.3 5.2-20.3 5.2-7.1.3-13.7-1.1-20.2-3.8z" style="fill:#fff"/><path d="m0 441 21.5 6.2c21.5 6.1 64.6 18.5 107.4 24.6 42.9 6.2 85.6 6.2 128.5 0 42.8-6.1 85.9-18.5 128.7-19.8 42.9-1.3 85.6 8.3 128.5 9.3 42.8 1 85.9-6.6 128.7-11.6 42.9-5 85.6-7.4 128.5-12.5C814.9 432 858 424 879.5 420l21.5-4v185H0V441z" style="fill:#f3d1ad"/><path d="m0 500 21.5 2.2c21.5 2.1 64.6 6.5 107.4 5.8 42.9-.7 85.6-6.3 128.5-10.5 42.8-4.2 85.9-6.8 128.7-3.2C429 498 471.7 508 514.6 515c42.8 7 85.9 11 128.7 4.7 42.9-6.4 85.6-23 128.5-34.2 42.8-11.2 85.9-16.8 107.4-19.7L901 463v138H0V500z" style="fill:#eedcca"/><path class="st6" d="M685.1 525.7c.8.7 1.1.6 1.8.1 2-1.2 3.4-2.9 4.5-4.9.6-1.1 1-2.2 1.4-3.4.3 1.5 0 2.9-.6 4.2-1 2.5-2.6 4.6-4.9 6.2-.5.3-1 .6-1.6.7-.9.3-1.6-.3-1.6-1.3.2-.3.4-.7.5-1.2l.5-.4zM677.6 521.3c.6.3 1.2.5 1.8.2.5-.3 1-.8 1.4-1.1.5-.4 1-.8 1.5-1.1.7-.4 1.3-.3 1.9.1.7.5 1.1 1.3.9 2.3-.1.3-.3.6-.3 1-.8-1.1-1.7-1.4-2.8-.6-.7.4-1.3 1-1.9 1.5l-.9.6c-.9.4-1.7 0-1.8-1.1 0-.6.1-1.1.2-1.8zM698 529.2c-.4-.3-.4-.7-.4-1.1 0-.7 0-1.5.1-2.2.6-.1 1-.6 1.3-1.1.9-1.4 1.4-2.9 1.5-4.5 0-.5.1-.9.2-1.4.2.8.6 1.7.6 2.5.2 2.3-.2 4.6-1.5 6.6-.3.5-.8.8-1.2 1.2h-.6z"/><path class="st7" d="M700.7 519.1c-.1.5-.1.9-.2 1.4-.1 1.6-.6 3.2-1.5 4.5-.3.5-.6 1-1.3 1.1l-.3-2.4c-.4-2.2-1.7-3.8-3.4-5.1-.4-.3-.9-.7-1.3-1.1v.1c-.3 1.2-.7 2.3-1.4 3.4-1.2 2-2.6 3.7-4.5 4.9-.7.4-1.5.8-2.3.2.2-.6.3-1.2.5-1.8.1-.5.1-1.1-.2-1.6.1-.3.2-.6.2-.9.1-.9-.1-1.6-.8-2.1-.6-.4-1.3-.5-1.9-.1-.5.3-1 .7-1.5 1-.5.3-.9.7-1.4 1-.6.4-1.2.2-1.8-.2.5-2.3 1.7-4.2 3.2-6 .8-1 1.8-1.8 2.9-2.4-1.5-1-2.5-2.2-2.7-4-.2-1.7.3-3.2 1.5-4.5l-1.8-3c-.2-.3-.2-.6 0-.8.2-.2.5-.3.7-.2.2 0 .4.2.5.4.6.9 1.1 1.8 1.7 2.7h.1c.7-.3.7-.3.6-1.1s-.2-1.5-.3-2.3c-.1-.5.2-.8.6-.9.4 0 .7.2.8.7.1.8.2 1.5.3 2.3.1.7 0 .6.7.6.1 0 .1.1.2.1.9 0 1.7.3 2.4.7.7.4 1.4.9 2 1.4 4.6 3.3 9.2 6.6 13.8 10 .7.5 1.4 1.1 2.1 1.7 0 .1.1.3.1.4.2.9.4 1.9.5 2.8.1 1.3-.1 2.6-.6 3.8-.2.5-.6.9-.8 1.3-.2-.7-.3-1.4-.6-2.1-.7-2.1-2.1-3.5-4-4.5-.3-.2-.6-.3-.9-.5h-.1l.1.1c-.1.4 0 .7.1 1zm-15.9-11.3c0 .4.1.7.3 1 .5.9 1.6.9 2.1.1.2-.3.3-.7.3-1 .1-.9-.5-1.7-1.3-1.8-.7-.1-1.3.7-1.4 1.7 0-.1 0 0 0 0z"/><path class="st8" d="M718 511c.1.4.3.8.4 1.3.5 1.4.7 2.7.3 4.1-.2.9-.7 1.6-1.4 2.3-.1-.1-.1-.2-.2-.3-1.2-1.8-2.6-3.5-4.5-4.6-1.5-.8-3-1-4.4 0-.2.2-.4.2-.6 0-1-.7-2-1.4-3-2.2-2.1-1.5-4.2-3-6.4-4.5-2.7-1.8-5.3-3.7-8-5.5-.4-.3-.9-.4-1.3-.6-.8-.3-1.6-.2-2.4-.1.5-1.9 1.7-3.1 3.4-3.8 1.1-.4 2.3-.6 3.4-.7 2.2-.1 4.3.3 6.4.9 3.3.9 6.4 2.3 9.3 4.1 1.9 1.2 3.7 2.7 5.2 4.4 1.1 1.2 2.1 2.5 3 3.9.3.4.5.8.8 1.3z"/><path class="st9" d="M686.5 500.9c.8-.1 1.6-.2 2.4.1.4.1.9.3 1.3.6 2.7 1.8 5.4 3.6 8 5.5 2.1 1.5 4.2 3 6.4 4.5 1 .7 2 1.4 3 2.2.2.2.4.2.6 0 1.5-1.1 3-.9 4.4 0 1.9 1.1 3.2 2.8 4.5 4.6.1.1.1.2.2.3l-2.1 1.5c-.3-.5-.6-.9-1-1.4l-.3-.3c-1-1-2.2-1.7-3.5-2.1-1.3-.4-2.4.3-2.6 1.6 0 .1-.1.2-.1.3-.4-.4-.7-.8-1-1.2-.7-.6-1.4-1.2-2.1-1.7-4.6-3.3-9.2-6.6-13.8-10-.7-.5-1.3-1-2-1.4-.7-.5-1.5-.7-2.4-.7-.1 0-.1 0-.2-.1.1-.9.2-1.6.3-2.3z"/><path class="st8" d="M694.1 494.3c.7-1.3 1.9-1.9 3.3-2.2 1.2-.3 2.5-.3 3.7-.2l2.1.3c2.7.6 5.3 1.6 7.7 3 2.4 1.4 4.5 3.1 6.3 5.3.2.2.5.4.7.7.1.2.1.4.2.5.9 1.2 1.6 2.5 1.9 4 .3 1.3.2 2.6-.6 3.7l-.3-.6c-.9-1.8-2.1-3.4-3.5-4.9-1.5-1.6-3.1-3.1-4.9-4.3-2.1-1.4-4.3-2.5-6.7-3.4-3.2-1.2-6.5-2-9.9-1.9z"/><path class="st9" d="M694.1 494.3c3.4-.1 6.7.6 9.9 1.9 2.3.9 4.6 2 6.7 3.4 1.8 1.2 3.5 2.7 4.9 4.3 1.4 1.5 2.6 3.1 3.5 4.9l.3.6-1.4 1.4c-.3-.4-.5-.8-.8-1.2-.8-1.4-1.9-2.7-3-3.9-1.6-1.7-3.3-3.2-5.2-4.4-2.9-1.8-6-3.2-9.3-4.1-2.1-.6-4.2-.9-6.4-.9.2-.6.3-1.3.8-2z"/><path class="st8" d="M717.9 494.2c.5.8 1 1.5 1.4 2.4.4.8.6 1.8.3 2.7 0 .2-.2.4-.3.5-.5-.5-.9-1.1-1.4-1.6-1-1-2-2.1-3.1-3-1.6-1.3-3.5-2.3-5.4-3.2-2.5-1.1-5.1-1.9-7.8-2 .6-1 1.6-1.4 2.7-1.6 1.2-.2 2.5-.1 3.7.1h.3c.9.3 1.7.5 2.6.8 2.2.8 4.2 2 5.9 3.7.3.4.7.8 1.1 1.2z"/><path class="st6" d="M713.2 525.3c.2-.4.6-.7.7-1.1.6-1.7.7-3.4.3-5.1v-.4l.6.6c.2.2.3.4.4.6.2.7.9 2.7.7 4.7 0 .4-.1 1.1-.4 1.9-.2.5-.5 1-.9 1.5-.5.5-1 .3-1.1-.4l-.3-2.3z"/><path class="st7" d="M706.7 517.1c.3.4.7.8 1 1.2 0-.1.1-.2.1-.3.2-1.3 1.3-2 2.6-1.6 1.3.4 2.5 1.1 3.5 2.1l.3.3v.4c.4 1.7.3 3.5-.3 5.1-.1.4-.5.7-.7 1.1-.3-.9-.6-1.8-1.1-2.7-.6-1.2-1.7-2-2.9-2.7-.3-.2-.6-.4-.9-.5.2.7.4 1.4.5 2.2.3 2 .1 3.9-.9 5.7-.2.3-.5.6-.8.9-.5.3-.9.2-1-.4l-.3-2.4c.3-.4.6-.8.8-1.3.5-1.2.7-2.5.6-3.8-.1-.9-.3-1.9-.5-2.8v-.5z"/><path class="st9" d="M701.6 490c2.7.1 5.3.9 7.8 2 1.9.8 3.8 1.8 5.4 3.2 1.1.9 2.1 2 3.1 3 .5.5.9 1.1 1.4 1.6-.3.7-.9 1.1-1.5 1.5-.2-.2-.5-.4-.7-.7-1.8-2.2-3.9-3.9-6.3-5.3s-5-2.4-7.7-3l-2.1-.3c.1-.7.2-1.4.6-2z"/><path d="M710.2 486.8c1.2-1 2.5-1.8 4.1-2.1 2.2-.4 3.6.6 4 2.8.2 1.1.2 2.3.1 3.4 0 .1 0 .1-.1.2-.1 0-.2-.1-.2-.1-.9-.9-2-1.7-3.2-2.3-1.4-.9-3-1.5-4.7-1.9z" style="fill:#fec265"/><path class="st9" d="M710.2 486.8c1.7.4 3.3 1 4.8 1.8 1.2.6 2.3 1.4 3.2 2.3.1.1.2.1.2.1-.2 1-.4 2.1-.5 3.1l-1.2-1.2c-1.7-1.7-3.7-2.8-5.9-3.7-.8-.3-1.7-.5-2.6-.8.7-.4 1.4-1 2-1.6z"/><path d="M684.8 507.8s0-.1 0 0c0-1 .7-1.7 1.4-1.7.8.1 1.4.9 1.3 1.8 0 .3-.1.7-.3 1-.5.8-1.6.8-2.1-.1-.2-.3-.2-.7-.3-1z" style="fill:#453f42"/><path d="m.2 554.1 21.5 2c21.5 2 64.6 6 107.4-.2 42.9-6.1 85.6-22.5 128.5-29.1 42.8-6.7 85.9-3.7 128.7 2.1 42.9 5.9 85.6 14.5 128.5 15.5 42.8 1 85.9-5.6 128.7-12.1 42.9-6.5 85.6-12.9 128.5-11.2 42.8 1.7 85.9 11.3 107.4 16.2l21.5 4.8v59H.2v-47z" style="fill:#e7e7e7"/><radialGradient id="SVGID_1_" cx="220.075" cy="524" r="5.202" gradientTransform="matrix(1 0 0 -1 0 602)" gradientUnits="userSpaceOnUse"><stop offset=".22" style="stop-color:#a1e9f3;stop-opacity:.3"/><stop offset=".882" style="stop-color:#fff;stop-opacity:.5"/></radialGradient><circle cx="220.1" cy="78" r="5.2" style="fill:url(#SVGID_1_)"/><radialGradient id="SVGID_00000114773158667300082640000007887237417273561519_" cx="240.842" cy="508.336" r="10.461" gradientTransform="matrix(1 0 0 -1 0 602)" gradientUnits="userSpaceOnUse"><stop offset=".22" style="stop-color:#a1e9f3;stop-opacity:.3"/><stop offset=".882" style="stop-color:#fff;stop-opacity:.5"/></radialGradient><circle style="fill:url(#SVGID_00000114773158667300082640000007887237417273561519_)" cx="240.8" cy="93.7" r="10.5"/><radialGradient id="SVGID_00000163772825932550723320000017971570193304211386_" cx="133.234" cy="591.377" r="10.451" gradientTransform="matrix(1.1747 0 0 -1.1747 60.19 811.09)" gradientUnits="userSpaceOnUse"><stop offset=".22" style="stop-color:#a1e9f3;stop-opacity:.3"/><stop offset=".882" style="stop-color:#fff;stop-opacity:.5"/></radialGradient><circle style="fill:url(#SVGID_00000163772825932550723320000017971570193304211386_)" cx="216.7" cy="116.4" r="12.3"/><radialGradient id="SVGID_00000081620123420050564560000007844217804314271139_" cx="759.12" cy="292.456" r="10.461" gradientTransform="matrix(.7286 0 0 -.7286 -38.995 275.655)" gradientUnits="userSpaceOnUse"><stop offset=".22" style="stop-color:#a1e9f3;stop-opacity:.3"/><stop offset=".882" style="stop-color:#fff;stop-opacity:.5"/></radialGradient><circle style="fill:url(#SVGID_00000081620123420050564560000007844217804314271139_)" cx="514.1" cy="62.6" r="7.6"/><radialGradient id="SVGID_00000034802819470541326610000012809476531805862052_" cx="540.237" cy="518.8" r="10.449" gradientTransform="matrix(1 0 0 -1 0 602)" gradientUnits="userSpaceOnUse"><stop offset=".22" style="stop-color:#a1e9f3;stop-opacity:.3"/><stop offset=".882" style="stop-color:#fff;stop-opacity:.5"/></radialGradient><circle style="fill:url(#SVGID_00000034802819470541326610000012809476531805862052_)" cx="540.2" cy="83.2" r="10.5"/><radialGradient id="SVGID_00000119827758369500262790000004096908007031417481_" cx="530.14" cy="439.5" r="13.84" gradientTransform="matrix(1 0 0 -1 0 602)" gradientUnits="userSpaceOnUse"><stop offset=".22" style="stop-color:#a1e9f3;stop-opacity:.3"/><stop offset=".882" style="stop-color:#fff;stop-opacity:.5"/></radialGradient><circle style="fill:url(#SVGID_00000119827758369500262790000004096908007031417481_)" cx="530.1" cy="162.5" r="13.8"/><radialGradient id="SVGID_00000024695885001357254880000001129640167626864771_" cx="508.856" cy="492.654" r="5.227" gradientTransform="matrix(1 0 0 -1 0 602)" gradientUnits="userSpaceOnUse"><stop offset=".22" style="stop-color:#a1e9f3;stop-opacity:.3"/><stop offset=".882" style="stop-color:#fff;stop-opacity:.5"/></radialGradient><circle style="fill:url(#SVGID_00000024695885001357254880000001129640167626864771_)" cx="508.9" cy="109.3" r="5.2"/><radialGradient id="SVGID_00000117662381882334884730000011890111872992593830_" cx="490.5" cy="457.027" r="7.762" gradientTransform="matrix(1 0 0 -1 0 602)" gradientUnits="userSpaceOnUse"><stop offset=".22" style="stop-color:#a1e9f3;stop-opacity:.3"/><stop offset=".882" style="stop-color:#fff;stop-opacity:.5"/></radialGradient><circle style="fill:url(#SVGID_00000117662381882334884730000011890111872992593830_)" cx="490.5" cy="145" r="7.8"/><radialGradient id="SVGID_00000153666098919234446110000014139570187705022097_" cx="269.8" cy="384.5" r="11.162" gradientTransform="matrix(1 0 0 -1 0 602)" gradientUnits="userSpaceOnUse"><stop offset=".22" style="stop-color:#a1e9f3;stop-opacity:.3"/><stop offset=".882" style="stop-color:#fff;stop-opacity:.5"/></radialGradient><circle style="fill:url(#SVGID_00000153666098919234446110000014139570187705022097_)" cx="269.8" cy="217.5" r="11.2"/><radialGradient id="SVGID_00000083802514494724952440000009730344937631548549_" cx="733.232" cy="425.651" r="10.454" gradientTransform="matrix(1 0 0 -1 0 602)" gradientUnits="userSpaceOnUse"><stop offset=".22" style="stop-color:#a1e9f3;stop-opacity:.3"/><stop offset=".882" style="stop-color:#fff;stop-opacity:.5"/></radialGradient><circle style="fill:url(#SVGID_00000083802514494724952440000009730344937631548549_)" cx="733.2" cy="176.3" r="10.5"/><radialGradient id="SVGID_00000129907281484866084010000013420988373754897585_" cx="248.674" cy="409.5" r="5.224" gradientTransform="matrix(1 0 0 -1 0 602)" gradientUnits="userSpaceOnUse"><stop offset=".22" style="stop-color:#a1e9f3;stop-opacity:.3"/><stop offset=".882" style="stop-color:#fff;stop-opacity:.5"/></radialGradient><circle style="fill:url(#SVGID_00000129907281484866084010000013420988373754897585_)" cx="248.7" cy="192.5" r="5.2"/><radialGradient id="SVGID_00000132073395124898928930000008982570232083394962_" cx="968.383" cy="114.101" r="10.439" gradientTransform="matrix(.6659 0 0 -.6659 69.654 209.68)" gradientUnits="userSpaceOnUse"><stop offset=".22" style="stop-color:#a1e9f3;stop-opacity:.3"/><stop offset=".882" style="stop-color:#fff;stop-opacity:.5"/></radialGradient><circle style="fill:url(#SVGID_00000132073395124898928930000008982570232083394962_)" cx="714.5" cy="133.7" r="7"/><radialGradient id="SVGID_00000116203830666424921200000002470233016762003848_" cx="657.918" cy="627.444" r="10.454" gradientTransform="matrix(1.2389 0 0 -1.2389 -58.465 889.183)" gradientUnits="userSpaceOnUse"><stop offset=".22" style="stop-color:#a1e9f3;stop-opacity:.3"/><stop offset=".882" style="stop-color:#fff;stop-opacity:.5"/></radialGradient><circle style="fill:url(#SVGID_00000116203830666424921200000002470233016762003848_)" cx="756.6" cy="111.8" r="13"/><radialGradient id="SVGID_00000035517771957921259630000011588100256811912891_" cx="274.877" cy="434.4" r="8.921" gradientTransform="matrix(1 0 0 -1 0 602)" gradientUnits="userSpaceOnUse"><stop offset=".22" style="stop-color:#a1e9f3;stop-opacity:.3"/><stop offset=".882" style="stop-color:#fff;stop-opacity:.5"/></radialGradient><circle style="fill:url(#SVGID_00000035517771957921259630000011588100256811912891_)" cx="274.9" cy="167.6" r="8.9"/><radialGradient id="SVGID_00000080888984368289929300000015805029377364710302_" cx="761.866" cy="391.483" r="5.226" gradientTransform="matrix(1 0 0 -1 0 602)" gradientUnits="userSpaceOnUse"><stop offset=".22" style="stop-color:#a1e9f3;stop-opacity:.3"/><stop offset=".882" style="stop-color:#fff;stop-opacity:.5"/></radialGradient><circle style="fill:url(#SVGID_00000080888984368289929300000015805029377364710302_)" cx="761.9" cy="210.5" r="5.2"/><radialGradient id="SVGID_00000043435037176086505530000018028267766752525222_" cx="1129.475" cy="-663.138" r="10.454" gradientTransform="matrix(.3735 0 0 -.3735 -181.01 -99.016)" gradientUnits="userSpaceOnUse"><stop offset=".22" style="stop-color:#a1e9f3;stop-opacity:.3"/><stop offset=".882" style="stop-color:#fff;stop-opacity:.5"/></radialGradient><circle style="fill:url(#SVGID_00000043435037176086505530000018028267766752525222_)" cx="240.8" cy="148.7" r="3.9"/><radialGradient id="SVGID_00000017475297918074531810000002662455755761875105_" cx="199.844" cy="369.932" r="5.227" gradientTransform="matrix(1 0 0 -1 0 602)" gradientUnits="userSpaceOnUse"><stop offset=".22" style="stop-color:#a1e9f3;stop-opacity:.3"/><stop offset=".882" style="stop-color:#fff;stop-opacity:.5"/></radialGradient><circle style="fill:url(#SVGID_00000017475297918074531810000002662455755761875105_)" cx="199.8" cy="232.1" r="5.2"/></svg>