<svg width="900" height="600" xmlns="http://www.w3.org/2000/svg"><path fill="#A1E9F3" d="M0 0h900v600H0z"/><path d="m0 414 21.5-8.3c21.5-8.4 64.5-25 107.3-27.2 42.9-2.2 85.5 10.2 128.4 4.2 42.8-6 85.8-30.4 128.6-44C428.7 325 471.3 322 514.2 323c42.8 1 85.8 6 128.6 13.7 42.9 7.6 85.5 18 128.4 29.1C814 377 857 389 878.5 395l21.5 6v200H0z" fill="#f7bb73"/><path d="m0 384 21.5 9.5C43 403 86 422 128.8 430.8c42.9 8.9 85.5 7.5 128.4-5.8 42.8-13.3 85.8-38.7 128.6-50.8 42.9-12.2 85.5-11.2 128.4-5.7C557 374 600 384 642.8 388c42.9 4 85.5 2 128.4-1.7 42.8-3.6 85.8-9 107.3-11.6L900 372v229H0z" fill="#f6c690"/><path d="m0 441 21.5 6.2c21.5 6.1 64.5 18.5 107.3 24.6 42.9 6.2 85.5 6.2 128.4 0 42.8-6.1 85.8-18.5 128.6-19.8 42.9-1.3 85.5 8.3 128.4 9.3 42.8 1 85.8-6.6 128.6-11.6 42.9-5 85.5-7.4 128.4-12.5C814 432 857 424 878.5 420l21.5-4v185H0z" fill="#f3d1ad"/><path d="m0 500 21.5 2.2c21.5 2.1 64.5 6.5 107.3 5.8 42.9-.7 85.5-6.3 128.4-10.5 42.8-4.2 85.8-6.8 128.6-3.2 42.9 3.7 85.5 13.7 128.4 20.7 42.8 7 85.8 11 128.6 4.7 42.9-6.4 85.5-23 128.4-34.2 42.8-11.2 85.8-16.8 107.3-19.7L900 463v138H0z" fill="#eedcca"/><path d="m0 554 21.5 2c21.5 2 64.5 6 107.3-.2 42.9-6.1 85.5-22.5 128.4-29.1 42.8-6.7 85.8-3.7 128.6 2.1 42.9 5.9 85.5 14.5 128.4 15.5 42.8 1 85.8-5.6 128.6-12.1 42.9-6.5 85.5-12.9 128.4-11.2 42.8 1.7 85.8 11.3 107.3 16.2L900 542v59H0z" fill="#e7e7e7"/></svg>