<svg xmlns="http://www.w3.org/2000/svg" viewBox="0 0 386 237" style="enable-background:new 0 0 386 237" xml:space="preserve"><path d="m45.1 12 21 3c24.8 3.5 50 5 73.9 13.2 16.4 5.7 30.5 14.9 37.7 31.8 4.2 9.9 4.7 20.2 4 30.8-1.5 23.1-15.2 39.5-29.6 55.6-6.8 7.7-13.6 15.5-20.3 23.2-.6.7-1.2 1.4-1.8 2-.6.7-.8 1.8-.5 2.7.2.5.6.8 1.1.7 6.7-.8 13.4-1.3 20-2.5 29.2-5.3 57.5-14.1 84.9-25.3 14.4-5.9 28-14 41.9-21.2 16.3-8.4 32.5-16.8 48.7-25.3 1.9-1 3.7-2 5.4-3.1 10.8-6.8 21.5-5.5 31.7.9 8.3 5.2 11.8 13.4 11.6 23-.2 10.2-4.7 18.5-13.8 23.3-32.6 17.3-65.1 34.8-98.2 51.3-12.6 6.3-26.3 10.5-39.8 14.4-20.8 6.1-42 11.3-63 16.7-4.5 1.2-9.2 1.7-13.9 2.6h-.2l-2.4.4c-7 1.1-14 1-21-.3-.4-.1-.7-.1-.7-.1-2.1-.7-4.2-1.5-6.3-2-14-3.7-26.4-10.5-35.3-22-13.6-17.5-10.4-36.6-2.5-55.2 5.7-13.4 16.2-23.4 25.9-33.9 6.6-7.2 12.9-14.7 18.5-22.6 7.3-10.3 5.8-14-6.8-16-24.9-3.8-49.9-7.4-74.9-10.1-16.7-1.9-27.6-9.2-30.4-25.5C10 42 9 38 10 32c1-10 10.6-17.2 22.1-20 3.9-1 7.9-1 13 0z" style="fill:#f8b97b"/></svg>