<?xml version="1.0" encoding="utf-8"?>
<svg version="1.1" id="diamond" xmlns="http://www.w3.org/2000/svg" xmlns:xlink="http://www.w3.org/1999/xlink" x="0px" y="0px"
	 viewBox="0 0 20 20" style="enable-background:new 0 0 20 20;" xml:space="preserve">
<style type="text/css">
	.st0{fill:#BBFFFF;}
	.st1{fill:#86FCF6;}
	.st2{fill:#7AFCF8;}
	.st3{fill:#E9FFFE;}
	.st4{fill:#33E5E5;}
	.st5{fill:#40D3D3;}
	.st6{fill:#86F1FC;}
	.st7{fill:#7CDDDD;}
	.st8{fill:#32D6FC;}
	.st9{fill:#29B5D6;}
	.st10{fill:#1EC1F4;}
	.st11{fill:#22ACDD;}
	.st12{fill:#30B7D6;}
	.st13{fill:#1199C9;}
	.st14{fill:#12A2DB;}
	.st15{fill:#0F87BC;}
</style>
<g id="Group">
	<polygon class="st0" points="13.2,6.1 7,6 2.8,3.6 7,1.5 13.2,1.5 17,3.4 	"/>
	<path class="st1" d="M7.4,4.1C7.4,4.1,7.5,4.1,7.4,4.1c0-0.1,0-0.1,0-0.1c0.1-0.9-0.1-1.7,0-2.5L7,1.5L2.8,3.6L7,6
		C7.2,5.4,7.4,4.8,7.4,4.1z"/>
	<path class="st2" d="M13.2,1.5l-0.4,0c0,0.8,0,1.7-0.2,2.5c0,0,0.1,0.1,0.1,0.1c0.1,0.6,0.4,1.2,0.6,1.8L17,3.4L13.2,1.5z"/>
	<polygon class="st3" points="13.2,6.1 7,6 2.8,3.6 7,5.7 13.2,5.8 17,3.4 	"/>
	<polygon class="st4" points="13,4.6 7.3,4.6 4.4,3 7.3,1.5 13,1.5 15.8,3.1 	"/>
	<path class="st5" d="M13,1.5l-0.2,0c-0.1,1-1.1,1.9-1.9,2.3c-0.7,0.3-1.5,0.6-2.3,0.7l4.4,0l2.9-1.5L13,1.5z"/>
	<polygon class="st6" points="2.8,3.6 0.5,7.5 5,9.9 7,6 	"/>
	<polygon class="st7" points="13.2,6.1 14.9,10.1 19.6,7.1 17,3.4 	"/>
	<polygon class="st8" points="7,6 5,9.9 14.9,10.1 13.2,6.1 	"/>
	<polygon class="st3" points="6.8,5.9 5,9.9 7.3,6 	"/>
	<polygon class="st3" points="13.4,5.8 14.9,10.2 12.9,6 	"/>
	<polygon class="st1" points="5,9.9 4.9,14.1 1.5,11.9 0.5,7.5 	"/>
	<polygon class="st9" points="5,9.9 4.9,14.1 4.6,10.2 0.5,7.5 	"/>
	
		<rect x="7.8" y="7.1" transform="matrix(2.065890e-02 -0.9998 0.9998 2.065890e-02 -2.3832 21.7655)" class="st10" width="4.1" height="9.9"/>
	<polygon class="st11" points="14.9,10.1 14.8,14.3 14.2,10.8 5.5,10.4 4.9,14.1 5,9.9 	"/>
	<polygon class="st12" points="19.6,7.1 18.4,11.8 14.8,14.3 14.9,10.1 	"/>
	<polygon class="st13" points="19.6,7.1 15.4,10.6 14.8,14.3 14.9,10.1 	"/>
	<polygon class="st6" points="1.5,11.9 3.6,14.7 9.8,19 4.9,14 	"/>
	<polygon class="st13" points="18.4,11.8 14.8,14.3 9.8,19 16.2,14.8 	"/>
	<polygon class="st14" points="4.9,14 14.8,14.3 9.8,19 	"/>
	<path class="st15" d="M13.1,14.2C13.1,14.2,13.1,14.3,13.1,14.2c-0.4,0.7-0.8,1.4-1.3,2c-0.7,0.8-1.3,1.6-2,2.5l0,0.3l0,0l5-4.7
		L13.1,14.2z"/>
	<polygon class="st15" points="4.9,14 9.9,14.1 6.3,14.5 7.5,16.6 	"/>
</g>
</svg>
