<svg version="1.1" id="greeting" xmlns="http://www.w3.org/2000/svg" x="0" y="0" viewBox="0 0 900 600" style="enable-background:new 0 0 900 600" xml:space="preserve"><style>.st3{fill:#bff}.st4{fill:#86fcf6}.st5{fill:#7afcf8}.st6{fill:#e9fffe}.st7{fill:#33e5e5}.st8{fill:#40d3d3}.st9{fill:#86f1fc}.st10{fill:#7cdddd}.st11{fill:#32d6fc}.st12{fill:#29b5d6}.st13{fill:#1ec1f4}.st14{fill:#22acdd}.st15{fill:#30b7d6}.st16{fill:#1199c9}.st17{fill:#12a2db}.st18{fill:#0f87bc}.st19{fill:#fff}</style><path d="M0 0h900v600H0V0z" style="fill:#a1e9f3"/><path d="m0 414 21.5-8.3c21.5-8.4 64.5-25 107.3-27.2 42.9-2.2 85.5 10.2 128.4 4.2 42.8-6 85.8-30.4 128.6-44C428.7 325 471.3 322 514.2 323c42.8 1 85.8 6 128.6 13.7 42.9 7.6 85.5 18 128.4 29.1C814 377 857 389 878.5 395l21.5 6v200H0V414z" style="fill:#f7bb73"/><path d="m0 384 21.5 9.5C43 403 86 422 128.8 430.8c42.9 8.9 85.5 7.5 128.4-5.8 42.8-13.3 85.8-38.7 128.6-50.8 42.9-12.2 85.5-11.2 128.4-5.7C557 374 600 384 642.8 388c42.9 4 85.5 2 128.4-1.7 42.8-3.6 85.8-9 107.3-11.6L900 372v229H0V384z" style="fill:#f6c690"/><path class="st3" d="m351.9 432.5 15.6 2.3 11.2-4.5-9.6-6.8-15.5-2.3-10.2 3.4z"/><path class="st4" d="M367 429.8v-.3c.2-2.2 1-4.2.9-6.2l1.1.2 9.6 6.8-11.2 4.5c-.1-1.7-.4-3.3-.4-5z"/><path class="st5" d="m353.6 421.2.9.1c-.3 2.1-.7 4.2-.4 6.3-.1.1-.2.2-.2.3-.5 1.5-1.4 2.9-2.1 4.3l-8.3-7.8 10.1-3.2z"/><path class="st6" d="m351.9 432.5 15.6 2.3 11.2-4.5-11.1 3.7-15.6-2.2-8.6-7.2z"/><path class="st7" d="m353.1 429 14.1 2 7.7-2.8-6.5-4.8-14.2-2.1-7.6 2.8z"/><path class="st8" d="m354.2 421.3.5.1c-.1 2.5 2.1 5.3 3.9 6.5 1.6 1.1 3.4 2 5.4 2.7l-10.9-1.6-6.5-4.9 7.6-2.8z"/><path class="st9" d="m378.7 430.3 4.3 10.5-12 4.4-3.5-10.4z"/><path class="st10" d="m351.9 432.5-5.7 9.5-10.5-9.2 7.7-8.2z"/><path class="st11" d="m367.5 434.8 3.5 10.4-24.8-3.2 5.7-9.5z"/><path class="st6" d="m367.9 434.4 3.1 10.8-4.3-10.5zM351.6 431.9l-5.4 10.2 6.7-9.6z"/><path class="st4" d="m371 445.2-1.4 10.3 9.4-4.1 4-10.6z"/><path class="st12" d="m371 445.2-1.4 10.3 2.4-9.5 11-5.2z"/><path transform="rotate(-82.756 357.941 448.774)" class="st13" d="M352.7 436.3h10.4v25h-10.4z"/><path class="st14" d="m346.2 442-1.3 10.4 2.9-8.4 21.8 2.3v9.2l1.4-10.3z"/><path class="st15" d="M335.7 432.8 337 445l7.9 7.4 1.3-10.4z"/><path class="st16" d="m335.7 432.8 9.1 10.3.1 9.3 1.3-10.4z"/><path class="st9" d="m379 451.4-6.3 6.1-17 8.4 14-10.5z"/><path class="st16" d="m337 445 7.9 7.4 10.8 13.5-14.5-12.8z"/><path class="st17" d="m369.7 455.4-24.8-3 10.8 13.5z"/><path class="st18" d="M349.2 452.9c.1 0 .1.1 0 0 .6 2 1.6 3.7 2.6 5.4 1.4 2.3 2.7 4.6 4 6.9v.6l-.1.1-10.8-13.5 4.3.5zM369.7 455.4l-12.4-1.5 8.7 2.3-3.7 4.7z"/><path class="st19" d="M352.1 428.6c-1.1 2.2-10.8.4-10.8.4s7.7 2.6 9.6 4.2c1.7 1.4-2 18.6-2 18.6 7.3-19.9-.7-19.7 21.5-16.4-17.6-8-16.5-.3-13.3-19.6 0 0-3.9 10.6-5 12.8z"/><path d="m0 441 21.5 6.2c21.5 6.1 64.5 18.5 107.3 24.6 42.9 6.2 85.5 6.2 128.4 0 42.8-6.1 85.8-18.5 128.6-19.8 42.9-1.3 85.5 8.3 128.4 9.3 42.8 1 85.8-6.6 128.6-11.6 42.9-5 85.5-7.4 128.4-12.5C814 432 857 424 878.5 420l21.5-4v185H0V441z" style="fill:#f3d1ad"/><path class="st3" d="m549.5 459.8-39.3 8.3-29.5-9.5 23.5-19 39.2-8.4 26.5 6.9z"/><path class="st4" d="M510.5 455.4c0-.1.1-.1 0-.2 0-.1-.1-.3-.2-.5-.8-5.6-3.2-10.6-3.4-15.7l-2.8.6-23.5 19 29.4 9.5c.4-4.3.9-8.5.5-12.7z"/><path class="st5" d="m543.4 431.2-2.2.5c1.2 5.3 2.4 10.6 2 16.1.2.2.5.4.7.8 1.6 3.7 4.1 7.1 6.1 10.7l19.9-21.2-26.5-6.9z"/><path class="st6" d="m549.5 459.8-39.3 8.3-29.5-9.5 29.1 7.5 39.3-8.2 20.8-19.8z"/><path class="st7" d="m546 450.9-35.8 7.6-20-5.9 15.9-13.5 35.8-7.6 19.9 5.9z"/><path class="st8" d="m541.9 431.5-1.2.3c.7 6.3-4.5 13.8-9 17.2-3.9 3-8.4 5.7-13.3 7.8l27.5-5.8 15.9-13.5-19.9-6z"/><path class="st9" d="m480.7 458.6-9.3 27.4 31.6 9.2 7.2-27.1z"/><path class="st10" d="m549.5 459.8 16.2 23.3 25.3-25.3-21.1-19.7z"/><path class="st11" d="m510.2 468.1-7.2 27.1 62.7-12.1-16.2-23.3z"/><path class="st6" d="m508.9 467.2-5.9 28 9.1-27.5zM550.2 458.1l15.6 25.2-18.7-23.5z"/><path class="st4" d="m503 495.2 5.1 26.2-24.5-8.8-12.2-26.6z"/><path class="st12" d="m503 495.2 5.1 26.2-7.5-23.9-29.2-11.5z"/><path transform="rotate(-10.936 536.86 502.263)" class="st13" d="M504.9 488.9h63.9v26.7h-63.9z"/><path class="st14" d="m565.7 483.1 5.1 26.2-8.8-20.8-55.4 9.4 1.5 23.5-5.1-26.2z"/><path class="st15" d="m591 457.8-1.2 31.4-19 20.1-5.1-26.2z"/><path class="st16" d="m591 457.8-21.5 27.9 1.3 23.6-5.1-26.2z"/><path class="st9" d="m483.6 512.6 16.9 14.4 45 18.7-37.5-24.4z"/><path class="st16" d="m589.8 489.2-19 20.1-25.3 36.4 34.7-35z"/><path class="st17" d="m508 521.3 62.8-12-25.3 36.4z"/><path class="st18" d="M559.8 511.4c0 .1-.1.2-.2.3-1.1 4.9-3.3 9.5-5.6 14-3.1 6.1-6.1 12.1-9.1 18.2l.2 1.6.4.2 25.3-36.4-11 2.1zM508 521.3l31.4-6.1-22 7.4 10.3 11.5z"/><path d="m0 500 21.5 2.2c21.5 2.1 64.5 6.5 107.3 5.8 42.9-.7 85.5-6.3 128.4-10.5 42.8-4.2 85.8-6.8 128.6-3.2 42.9 3.7 85.5 13.7 128.4 20.7 42.8 7 85.8 11 128.6 4.7 42.9-6.4 85.5-23 128.4-34.2 42.8-11.2 85.8-16.8 107.3-19.7L900 463v138H0V500z" style="fill:#eedcca"/><path d="m0 554 21.5 2c21.5 2 64.5 6 107.3-.2 42.9-6.1 85.5-22.5 128.4-29.1 42.8-6.7 85.8-3.7 128.6 2.1 42.9 5.9 85.5 14.5 128.4 15.5 42.8 1 85.8-5.6 128.6-12.1 42.9-6.5 85.5-12.9 128.4-11.2 42.8 1.7 85.8 11.3 107.3 16.2L900 542v59H0v-47z" style="fill:#e7e7e7"/><g><path class="st19" d="M511.4 456.6c3.5 5.2 27.6-2.3 27.6-2.3s-18.8 9.1-23.1 13.6c-4 4.1 11 46.5 11 46.5-24.7-48.3-4.3-50.2-59.8-35.1 42.2-25.8 41.8-5.9 27.6-53.9-.1.1 13.2 26 16.7 31.2z"/></g><g><path class="st19" d="M618.7 357c-.3 2.9-11.7 5-11.7 5s9.6-.3 12.3.6c2.5.8 5.5 21.2 5.5 21.2-.3-24.9-9-21.3 16.8-27-22.6-1.4-18.2 6.6-22.7-16-.1 0 .1 13.3-.2 16.2z"/></g><radialGradient id="SVGID_1_" cx="675.889" cy="2100.275" r="14.398" gradientTransform="translate(-187.994 -1371.254) scale(.7286)" gradientUnits="userSpaceOnUse"><stop offset=".22" style="stop-color:#a1e9f3;stop-opacity:.3"/><stop offset=".882" style="stop-color:#fff;stop-opacity:.5"/></radialGradient><circle cx="304.5" cy="159" r="10.5" style="fill:url(#SVGID_1_)"/><radialGradient id="SVGID_00000060748723739899682270000003809402198163868822_" cx="361.013" cy="1590.345" r="14.396" gradientTransform="translate(0 -1398)" gradientUnits="userSpaceOnUse"><stop offset=".22" style="stop-color:#a1e9f3;stop-opacity:.3"/><stop offset=".882" style="stop-color:#fff;stop-opacity:.5"/></radialGradient><circle style="fill:url(#SVGID_00000060748723739899682270000003809402198163868822_)" cx="361" cy="192.3" r="14.5"/><radialGradient id="SVGID_00000158739767643397318650000000590837888263423914_" cx="391.078" cy="1728.156" r="19.067" gradientTransform="translate(0 -1398)" gradientUnits="userSpaceOnUse"><stop offset=".22" style="stop-color:#a1e9f3;stop-opacity:.3"/><stop offset=".882" style="stop-color:#fff;stop-opacity:.5"/></radialGradient><circle style="fill:url(#SVGID_00000158739767643397318650000000590837888263423914_)" cx="391" cy="330.2" r="19"/><radialGradient id="SVGID_00000011033521672039450230000011867706940045518994_" cx="328.252" cy="1653.823" r="7.201" gradientTransform="translate(0 -1398)" gradientUnits="userSpaceOnUse"><stop offset=".22" style="stop-color:#a1e9f3;stop-opacity:.3"/><stop offset=".882" style="stop-color:#fff;stop-opacity:.5"/></radialGradient><circle style="fill:url(#SVGID_00000011033521672039450230000011867706940045518994_)" cx="328.3" cy="255.8" r="7.2"/><radialGradient id="SVGID_00000081636074083308513520000008337913962597075386_" cx="271.946" cy="1670.531" r="10.694" gradientTransform="translate(0 -1398)" gradientUnits="userSpaceOnUse"><stop offset=".22" style="stop-color:#a1e9f3;stop-opacity:.3"/><stop offset=".882" style="stop-color:#fff;stop-opacity:.5"/></radialGradient><circle style="fill:url(#SVGID_00000081636074083308513520000008337913962597075386_)" cx="271.9" cy="272.6" r="10.7"/><radialGradient id="SVGID_00000125594536232827632680000000873546505146576294_" cx="553.178" cy="1742.689" r="14.41" gradientTransform="translate(0 -1398)" gradientUnits="userSpaceOnUse"><stop offset=".22" style="stop-color:#a1e9f3;stop-opacity:.3"/><stop offset=".882" style="stop-color:#fff;stop-opacity:.5"/></radialGradient><circle style="fill:url(#SVGID_00000125594536232827632680000000873546505146576294_)" cx="553.1" cy="344.6" r="14.5"/><radialGradient id="SVGID_00000060741309203654333010000001494035533845398954_" cx="978.964" cy="2445.148" r="14.382" gradientTransform="translate(-113.767 -1355.656) scale(.6659)" gradientUnits="userSpaceOnUse"><stop offset=".22" style="stop-color:#a1e9f3;stop-opacity:.3"/><stop offset=".882" style="stop-color:#fff;stop-opacity:.5"/></radialGradient><circle style="fill:url(#SVGID_00000060741309203654333010000001494035533845398954_)" cx="538.1" cy="272.6" r="9.6"/><radialGradient id="SVGID_00000056392993853312362220000006674776478190709152_" cx="477.127" cy="1330.627" r="14.416" gradientTransform="translate(72.691 -1421.626) scale(1.2389)" gradientUnits="userSpaceOnUse"><stop offset=".22" style="stop-color:#a1e9f3;stop-opacity:.3"/><stop offset=".882" style="stop-color:#fff;stop-opacity:.5"/></radialGradient><circle style="fill:url(#SVGID_00000056392993853312362220000006674776478190709152_)" cx="663.8" cy="226.8" r="17.9"/><radialGradient id="SVGID_00000048471386311618586030000002604414680547790223_" cx="598.264" cy="1557.229" r="10.372" gradientTransform="translate(0 -1398)" gradientUnits="userSpaceOnUse"><stop offset=".22" style="stop-color:#a1e9f3;stop-opacity:.3"/><stop offset=".882" style="stop-color:#fff;stop-opacity:.5"/></radialGradient><circle style="fill:url(#SVGID_00000048471386311618586030000002604414680547790223_)" cx="598.3" cy="159.2" r="10.3"/><radialGradient id="SVGID_00000119819059265226521130000015332392989775701685_" cx="587.965" cy="1624.852" r="7.2" gradientTransform="translate(0 -1398)" gradientUnits="userSpaceOnUse"><stop offset=".22" style="stop-color:#a1e9f3;stop-opacity:.3"/><stop offset=".882" style="stop-color:#fff;stop-opacity:.5"/></radialGradient><circle style="fill:url(#SVGID_00000119819059265226521130000015332392989775701685_)" cx="588" cy="226.8" r="7.2"/><radialGradient id="SVGID_00000147902533995353553610000015937167618218529935_" cx="437.563" cy="1486.305" r="8.653" gradientTransform="translate(0 -1398)" gradientUnits="userSpaceOnUse"><stop offset=".22" style="stop-color:#a1e9f3;stop-opacity:.3"/><stop offset=".882" style="stop-color:#fff;stop-opacity:.5"/></radialGradient><circle style="fill:url(#SVGID_00000147902533995353553610000015937167618218529935_)" cx="437.6" cy="88.3" r="8.6"/></svg>